<mxfile host="app.diagrams.net" agent="Mozilla/5.0 (Windows NT 10.0; Win64; x64) AppleWebKit/537.36 (KHTML, like Gecko) Chrome/127.0.0.0 Safari/537.36" version="24.7.6">
  <diagram name="Page-1" id="g-4OwmUu99pSSspBPPSN">
    <mxGraphModel dx="1909" dy="949" grid="1" gridSize="10" guides="1" tooltips="1" connect="1" arrows="1" fold="1" page="1" pageScale="1" pageWidth="827" pageHeight="1169" math="0" shadow="0">
      <root>
        <mxCell id="0" />
        <mxCell id="1" parent="0" />
        <mxCell id="6DSpFLGJofq4vWxEsyLQ-1" value="User" style="rounded=0;whiteSpace=wrap;html=1;" parent="1" vertex="1">
          <mxGeometry x="120" y="50" width="120" height="60" as="geometry" />
        </mxCell>
        <mxCell id="6DSpFLGJofq4vWxEsyLQ-2" value="Login" style="ellipse;whiteSpace=wrap;html=1;" parent="1" vertex="1">
          <mxGeometry x="330" y="170" width="120" height="100" as="geometry" />
        </mxCell>
        <mxCell id="6DSpFLGJofq4vWxEsyLQ-4" value="" style="endArrow=classic;html=1;rounded=0;entryX=0;entryY=0.5;entryDx=0;entryDy=0;" parent="1" edge="1">
          <mxGeometry relative="1" as="geometry">
            <mxPoint x="170" y="110" as="sourcePoint" />
            <mxPoint x="330" y="210" as="targetPoint" />
            <Array as="points">
              <mxPoint x="170" y="210" />
            </Array>
          </mxGeometry>
        </mxCell>
        <mxCell id="6DSpFLGJofq4vWxEsyLQ-5" value="Pass Login info" style="edgeLabel;resizable=0;html=1;;align=center;verticalAlign=middle;" parent="6DSpFLGJofq4vWxEsyLQ-4" connectable="0" vertex="1">
          <mxGeometry relative="1" as="geometry">
            <mxPoint x="12" as="offset" />
          </mxGeometry>
        </mxCell>
        <mxCell id="6DSpFLGJofq4vWxEsyLQ-6" value="" style="endArrow=classic;html=1;rounded=0;entryX=0;entryY=0.5;entryDx=0;entryDy=0;exitX=1;exitY=0.5;exitDx=0;exitDy=0;" parent="1" edge="1">
          <mxGeometry relative="1" as="geometry">
            <mxPoint x="450" y="210" as="sourcePoint" />
            <mxPoint x="680" y="210" as="targetPoint" />
          </mxGeometry>
        </mxCell>
        <mxCell id="6DSpFLGJofq4vWxEsyLQ-7" value="Veify Details" style="edgeLabel;resizable=0;html=1;;align=center;verticalAlign=middle;" parent="6DSpFLGJofq4vWxEsyLQ-6" connectable="0" vertex="1">
          <mxGeometry relative="1" as="geometry" />
        </mxCell>
        <mxCell id="6DSpFLGJofq4vWxEsyLQ-8" value="" style="endArrow=classic;html=1;rounded=0;entryX=0.417;entryY=1;entryDx=0;entryDy=0;entryPerimeter=0;exitX=0.017;exitY=0.682;exitDx=0;exitDy=0;exitPerimeter=0;" parent="1" source="6DSpFLGJofq4vWxEsyLQ-2" edge="1">
          <mxGeometry relative="1" as="geometry">
            <mxPoint x="320.3599999999999" y="237.39999999999998" as="sourcePoint" />
            <mxPoint x="150.03999999999996" y="110" as="targetPoint" />
            <Array as="points">
              <mxPoint x="150" y="237" />
            </Array>
          </mxGeometry>
        </mxCell>
        <mxCell id="6DSpFLGJofq4vWxEsyLQ-9" value="Details Receive&amp;nbsp;" style="edgeLabel;resizable=0;html=1;;align=center;verticalAlign=middle;" parent="6DSpFLGJofq4vWxEsyLQ-8" connectable="0" vertex="1">
          <mxGeometry relative="1" as="geometry">
            <mxPoint x="23" as="offset" />
          </mxGeometry>
        </mxCell>
        <mxCell id="6DSpFLGJofq4vWxEsyLQ-10" value="" style="endArrow=classic;html=1;rounded=0;entryX=0.977;entryY=0.65;entryDx=0;entryDy=0;entryPerimeter=0;exitX=0;exitY=0.75;exitDx=0;exitDy=0;" parent="1" target="6DSpFLGJofq4vWxEsyLQ-2" edge="1">
          <mxGeometry relative="1" as="geometry">
            <mxPoint x="680" y="235" as="sourcePoint" />
            <mxPoint x="440" y="330" as="targetPoint" />
          </mxGeometry>
        </mxCell>
        <mxCell id="6DSpFLGJofq4vWxEsyLQ-11" value="Send Response" style="edgeLabel;resizable=0;html=1;;align=center;verticalAlign=middle;" parent="6DSpFLGJofq4vWxEsyLQ-10" connectable="0" vertex="1">
          <mxGeometry relative="1" as="geometry" />
        </mxCell>
        <mxCell id="6DSpFLGJofq4vWxEsyLQ-12" value="Crea&lt;span style=&quot;font-size: 11px; text-wrap: nowrap; background-color: rgb(255, 255, 255);&quot;&gt;te Pos&lt;/span&gt;&lt;span style=&quot;font-size: 11px; text-wrap: nowrap; background-color: rgb(255, 255, 255);&quot;&gt;t&lt;/span&gt;" style="ellipse;whiteSpace=wrap;html=1;" parent="1" vertex="1">
          <mxGeometry x="330" y="330" width="120" height="100" as="geometry" />
        </mxCell>
        <mxCell id="6DSpFLGJofq4vWxEsyLQ-14" value="" style="endArrow=classic;html=1;rounded=0;entryX=0;entryY=0.5;entryDx=0;entryDy=0;" parent="1" edge="1">
          <mxGeometry relative="1" as="geometry">
            <mxPoint x="130" y="110" as="sourcePoint" />
            <mxPoint x="330" y="370" as="targetPoint" />
            <Array as="points">
              <mxPoint x="130" y="370" />
            </Array>
          </mxGeometry>
        </mxCell>
        <mxCell id="6DSpFLGJofq4vWxEsyLQ-15" value="Post Data" style="edgeLabel;resizable=0;html=1;;align=center;verticalAlign=middle;" parent="6DSpFLGJofq4vWxEsyLQ-14" connectable="0" vertex="1">
          <mxGeometry relative="1" as="geometry">
            <mxPoint x="46" y="30" as="offset" />
          </mxGeometry>
        </mxCell>
        <mxCell id="6DSpFLGJofq4vWxEsyLQ-16" value="" style="endArrow=classic;html=1;rounded=0;entryX=0;entryY=0.5;entryDx=0;entryDy=0;exitX=1;exitY=0.5;exitDx=0;exitDy=0;" parent="1" edge="1">
          <mxGeometry relative="1" as="geometry">
            <mxPoint x="450" y="370" as="sourcePoint" />
            <mxPoint x="680" y="370" as="targetPoint" />
          </mxGeometry>
        </mxCell>
        <mxCell id="6DSpFLGJofq4vWxEsyLQ-17" value="Store Post data" style="edgeLabel;resizable=0;html=1;;align=center;verticalAlign=middle;" parent="6DSpFLGJofq4vWxEsyLQ-16" connectable="0" vertex="1">
          <mxGeometry relative="1" as="geometry" />
        </mxCell>
        <mxCell id="6DSpFLGJofq4vWxEsyLQ-18" value="" style="endArrow=classic;html=1;rounded=0;exitX=0.017;exitY=0.682;exitDx=0;exitDy=0;exitPerimeter=0;" parent="1" edge="1">
          <mxGeometry relative="1" as="geometry">
            <mxPoint x="332.03999999999996" y="400.20000000000005" as="sourcePoint" />
            <mxPoint x="120" y="112" as="targetPoint" />
            <Array as="points">
              <mxPoint x="120" y="399" />
            </Array>
          </mxGeometry>
        </mxCell>
        <mxCell id="6DSpFLGJofq4vWxEsyLQ-19" value="Details Receive&amp;nbsp;" style="edgeLabel;resizable=0;html=1;;align=center;verticalAlign=middle;" parent="6DSpFLGJofq4vWxEsyLQ-18" connectable="0" vertex="1">
          <mxGeometry relative="1" as="geometry">
            <mxPoint x="60" y="37" as="offset" />
          </mxGeometry>
        </mxCell>
        <mxCell id="6DSpFLGJofq4vWxEsyLQ-20" value="" style="endArrow=classic;html=1;rounded=0;entryX=0.977;entryY=0.65;entryDx=0;entryDy=0;entryPerimeter=0;exitX=0;exitY=0.75;exitDx=0;exitDy=0;" parent="1" target="6DSpFLGJofq4vWxEsyLQ-12" edge="1">
          <mxGeometry relative="1" as="geometry">
            <mxPoint x="680" y="395" as="sourcePoint" />
            <mxPoint x="440" y="490" as="targetPoint" />
          </mxGeometry>
        </mxCell>
        <mxCell id="6DSpFLGJofq4vWxEsyLQ-21" value="Send Response" style="edgeLabel;resizable=0;html=1;;align=center;verticalAlign=middle;" parent="6DSpFLGJofq4vWxEsyLQ-20" connectable="0" vertex="1">
          <mxGeometry relative="1" as="geometry" />
        </mxCell>
        <mxCell id="6DSpFLGJofq4vWxEsyLQ-22" value="Edi&lt;span style=&quot;font-size: 11px; text-wrap: nowrap; background-color: rgb(255, 255, 255);&quot;&gt;t Profile&lt;/span&gt;" style="ellipse;whiteSpace=wrap;html=1;" parent="1" vertex="1">
          <mxGeometry x="330" y="540" width="120" height="100" as="geometry" />
        </mxCell>
        <mxCell id="6DSpFLGJofq4vWxEsyLQ-24" value="" style="endArrow=classic;html=1;rounded=0;entryX=0;entryY=0.5;entryDx=0;entryDy=0;exitX=0;exitY=1;exitDx=0;exitDy=0;" parent="1" source="6DSpFLGJofq4vWxEsyLQ-1" edge="1">
          <mxGeometry relative="1" as="geometry">
            <mxPoint x="110" y="110" as="sourcePoint" />
            <mxPoint x="330" y="580" as="targetPoint" />
            <Array as="points">
              <mxPoint x="110" y="110" />
              <mxPoint x="110" y="580" />
            </Array>
          </mxGeometry>
        </mxCell>
        <mxCell id="6DSpFLGJofq4vWxEsyLQ-25" value="Update Profile Data" style="edgeLabel;resizable=0;html=1;;align=center;verticalAlign=middle;" parent="6DSpFLGJofq4vWxEsyLQ-24" connectable="0" vertex="1">
          <mxGeometry relative="1" as="geometry">
            <mxPoint x="71" y="125" as="offset" />
          </mxGeometry>
        </mxCell>
        <mxCell id="6DSpFLGJofq4vWxEsyLQ-26" value="" style="endArrow=classic;html=1;rounded=0;entryX=0;entryY=0.5;entryDx=0;entryDy=0;exitX=1;exitY=0.5;exitDx=0;exitDy=0;" parent="1" edge="1">
          <mxGeometry relative="1" as="geometry">
            <mxPoint x="450" y="580" as="sourcePoint" />
            <mxPoint x="680" y="580" as="targetPoint" />
          </mxGeometry>
        </mxCell>
        <mxCell id="6DSpFLGJofq4vWxEsyLQ-27" value="Store Data" style="edgeLabel;resizable=0;html=1;;align=center;verticalAlign=middle;" parent="6DSpFLGJofq4vWxEsyLQ-26" connectable="0" vertex="1">
          <mxGeometry relative="1" as="geometry" />
        </mxCell>
        <mxCell id="6DSpFLGJofq4vWxEsyLQ-28" value="" style="endArrow=classic;html=1;rounded=0;exitX=0.017;exitY=0.682;exitDx=0;exitDy=0;exitPerimeter=0;entryX=0;entryY=0.75;entryDx=0;entryDy=0;" parent="1" source="6DSpFLGJofq4vWxEsyLQ-22" target="6DSpFLGJofq4vWxEsyLQ-1" edge="1">
          <mxGeometry relative="1" as="geometry">
            <mxPoint x="320.3599999999999" y="607.4" as="sourcePoint" />
            <mxPoint x="80" y="90" as="targetPoint" />
            <Array as="points">
              <mxPoint x="90" y="610" />
              <mxPoint x="90" y="95" />
            </Array>
          </mxGeometry>
        </mxCell>
        <mxCell id="6DSpFLGJofq4vWxEsyLQ-29" value="Details Receive&amp;nbsp;" style="edgeLabel;resizable=0;html=1;;align=center;verticalAlign=middle;" parent="6DSpFLGJofq4vWxEsyLQ-28" connectable="0" vertex="1">
          <mxGeometry relative="1" as="geometry">
            <mxPoint x="80" y="148" as="offset" />
          </mxGeometry>
        </mxCell>
        <mxCell id="6DSpFLGJofq4vWxEsyLQ-30" value="" style="endArrow=classic;html=1;rounded=0;entryX=0.977;entryY=0.65;entryDx=0;entryDy=0;entryPerimeter=0;exitX=0;exitY=0.75;exitDx=0;exitDy=0;" parent="1" target="6DSpFLGJofq4vWxEsyLQ-22" edge="1">
          <mxGeometry relative="1" as="geometry">
            <mxPoint x="680" y="605" as="sourcePoint" />
            <mxPoint x="440" y="700" as="targetPoint" />
          </mxGeometry>
        </mxCell>
        <mxCell id="6DSpFLGJofq4vWxEsyLQ-31" value="Send Response" style="edgeLabel;resizable=0;html=1;;align=center;verticalAlign=middle;" parent="6DSpFLGJofq4vWxEsyLQ-30" connectable="0" vertex="1">
          <mxGeometry relative="1" as="geometry" />
        </mxCell>
        <mxCell id="6DSpFLGJofq4vWxEsyLQ-32" value="No&lt;span style=&quot;font-size: 11px; text-wrap: nowrap; background-color: rgb(255, 255, 255);&quot;&gt;t&lt;/span&gt;ifica&lt;span style=&quot;font-size: 11px; text-wrap: nowrap; background-color: rgb(255, 255, 255);&quot;&gt;tion&lt;/span&gt;" style="ellipse;whiteSpace=wrap;html=1;" parent="1" vertex="1">
          <mxGeometry x="330" y="710" width="120" height="100" as="geometry" />
        </mxCell>
        <mxCell id="6DSpFLGJofq4vWxEsyLQ-34" value="" style="endArrow=classic;html=1;rounded=0;entryX=0;entryY=0.5;entryDx=0;entryDy=0;exitX=0;exitY=0.5;exitDx=0;exitDy=0;" parent="1" source="6DSpFLGJofq4vWxEsyLQ-1" target="6DSpFLGJofq4vWxEsyLQ-32" edge="1">
          <mxGeometry relative="1" as="geometry">
            <mxPoint x="170" y="650" as="sourcePoint" />
            <mxPoint x="330" y="750" as="targetPoint" />
            <Array as="points">
              <mxPoint x="70" y="80" />
              <mxPoint x="70" y="760" />
            </Array>
          </mxGeometry>
        </mxCell>
        <mxCell id="6DSpFLGJofq4vWxEsyLQ-36" value="" style="endArrow=classic;html=1;rounded=0;entryX=0;entryY=0.5;entryDx=0;entryDy=0;exitX=1;exitY=0.5;exitDx=0;exitDy=0;" parent="1" edge="1">
          <mxGeometry relative="1" as="geometry">
            <mxPoint x="450" y="760" as="sourcePoint" />
            <mxPoint x="680" y="760" as="targetPoint" />
          </mxGeometry>
        </mxCell>
        <mxCell id="6DSpFLGJofq4vWxEsyLQ-37" value="Noificaion" style="edgeLabel;resizable=0;html=1;;align=center;verticalAlign=middle;" parent="6DSpFLGJofq4vWxEsyLQ-36" connectable="0" vertex="1">
          <mxGeometry relative="1" as="geometry" />
        </mxCell>
        <mxCell id="6DSpFLGJofq4vWxEsyLQ-42" value="DB User" style="shape=partialRectangle;whiteSpace=wrap;html=1;left=0;right=0;fillColor=none;" parent="1" vertex="1">
          <mxGeometry x="690" y="190" width="120" height="60" as="geometry" />
        </mxCell>
        <mxCell id="6DSpFLGJofq4vWxEsyLQ-43" value="DB Notification" style="shape=partialRectangle;whiteSpace=wrap;html=1;left=0;right=0;fillColor=none;" parent="1" vertex="1">
          <mxGeometry x="690" y="730" width="120" height="60" as="geometry" />
        </mxCell>
        <mxCell id="6DSpFLGJofq4vWxEsyLQ-44" value="DB User" style="shape=partialRectangle;whiteSpace=wrap;html=1;left=0;right=0;fillColor=none;" parent="1" vertex="1">
          <mxGeometry x="690" y="560" width="120" height="60" as="geometry" />
        </mxCell>
        <mxCell id="6DSpFLGJofq4vWxEsyLQ-45" value="DB Post" style="shape=partialRectangle;whiteSpace=wrap;html=1;left=0;right=0;fillColor=none;" parent="1" vertex="1">
          <mxGeometry x="690" y="350" width="120" height="60" as="geometry" />
        </mxCell>
        <mxCell id="6DSpFLGJofq4vWxEsyLQ-169" value="Commen&lt;span style=&quot;font-size: 11px; text-wrap: nowrap; background-color: rgb(255, 255, 255);&quot;&gt;t&lt;/span&gt;" style="ellipse;whiteSpace=wrap;html=1;" parent="1" vertex="1">
          <mxGeometry x="332" y="890" width="120" height="100" as="geometry" />
        </mxCell>
        <mxCell id="6DSpFLGJofq4vWxEsyLQ-170" value="" style="endArrow=classic;html=1;rounded=0;entryX=0.03;entryY=0.394;entryDx=0;entryDy=0;entryPerimeter=0;" parent="1" target="6DSpFLGJofq4vWxEsyLQ-169" edge="1">
          <mxGeometry relative="1" as="geometry">
            <mxPoint x="120" y="60" as="sourcePoint" />
            <mxPoint x="200" y="930" as="targetPoint" />
            <Array as="points">
              <mxPoint x="60" y="60" />
              <mxPoint x="60" y="929" />
            </Array>
          </mxGeometry>
        </mxCell>
        <mxCell id="6DSpFLGJofq4vWxEsyLQ-171" value="Comment data" style="edgeLabel;resizable=0;html=1;;align=center;verticalAlign=middle;" parent="6DSpFLGJofq4vWxEsyLQ-170" connectable="0" vertex="1">
          <mxGeometry relative="1" as="geometry">
            <mxPoint x="110" y="326" as="offset" />
          </mxGeometry>
        </mxCell>
        <mxCell id="6DSpFLGJofq4vWxEsyLQ-172" value="" style="endArrow=classic;html=1;rounded=0;entryX=0;entryY=0.5;entryDx=0;entryDy=0;exitX=1;exitY=0.5;exitDx=0;exitDy=0;" parent="1" edge="1">
          <mxGeometry relative="1" as="geometry">
            <mxPoint x="452" y="930" as="sourcePoint" />
            <mxPoint x="682" y="930" as="targetPoint" />
          </mxGeometry>
        </mxCell>
        <mxCell id="6DSpFLGJofq4vWxEsyLQ-173" value="Store comment" style="edgeLabel;resizable=0;html=1;;align=center;verticalAlign=middle;" parent="6DSpFLGJofq4vWxEsyLQ-172" connectable="0" vertex="1">
          <mxGeometry relative="1" as="geometry" />
        </mxCell>
        <mxCell id="6DSpFLGJofq4vWxEsyLQ-174" value="" style="endArrow=classic;html=1;rounded=0;entryX=0;entryY=0;entryDx=0;entryDy=0;exitX=0.017;exitY=0.682;exitDx=0;exitDy=0;exitPerimeter=0;" parent="1" source="6DSpFLGJofq4vWxEsyLQ-169" target="6DSpFLGJofq4vWxEsyLQ-1" edge="1">
          <mxGeometry relative="1" as="geometry">
            <mxPoint x="190.3599999999999" y="957.4000000000001" as="sourcePoint" />
            <mxPoint x="20.039999999999964" y="830" as="targetPoint" />
            <Array as="points">
              <mxPoint x="50" y="957" />
              <mxPoint x="50" y="50" />
            </Array>
          </mxGeometry>
        </mxCell>
        <mxCell id="6DSpFLGJofq4vWxEsyLQ-175" value="Details Receive&amp;nbsp;" style="edgeLabel;resizable=0;html=1;;align=center;verticalAlign=middle;" parent="6DSpFLGJofq4vWxEsyLQ-174" connectable="0" vertex="1">
          <mxGeometry relative="1" as="geometry">
            <mxPoint x="132" y="345" as="offset" />
          </mxGeometry>
        </mxCell>
        <mxCell id="6DSpFLGJofq4vWxEsyLQ-176" value="" style="endArrow=classic;html=1;rounded=0;entryX=0.977;entryY=0.65;entryDx=0;entryDy=0;entryPerimeter=0;exitX=0;exitY=0.75;exitDx=0;exitDy=0;" parent="1" target="6DSpFLGJofq4vWxEsyLQ-169" edge="1">
          <mxGeometry relative="1" as="geometry">
            <mxPoint x="682" y="955" as="sourcePoint" />
            <mxPoint x="442" y="1050" as="targetPoint" />
          </mxGeometry>
        </mxCell>
        <mxCell id="6DSpFLGJofq4vWxEsyLQ-177" value="Send Response" style="edgeLabel;resizable=0;html=1;;align=center;verticalAlign=middle;" parent="6DSpFLGJofq4vWxEsyLQ-176" connectable="0" vertex="1">
          <mxGeometry relative="1" as="geometry" />
        </mxCell>
        <mxCell id="6DSpFLGJofq4vWxEsyLQ-178" value="DB Comments" style="shape=partialRectangle;whiteSpace=wrap;html=1;left=0;right=0;fillColor=none;" parent="1" vertex="1">
          <mxGeometry x="692" y="910" width="120" height="60" as="geometry" />
        </mxCell>
        <mxCell id="r96osmJHh8GL2CP-nq_v-1" value="Message" style="ellipse;whiteSpace=wrap;html=1;" vertex="1" parent="1">
          <mxGeometry x="332" y="1030" width="120" height="100" as="geometry" />
        </mxCell>
        <mxCell id="r96osmJHh8GL2CP-nq_v-2" value="" style="endArrow=classic;html=1;rounded=0;entryX=0;entryY=0.5;entryDx=0;entryDy=0;exitX=0.175;exitY=-0.022;exitDx=0;exitDy=0;exitPerimeter=0;" edge="1" parent="1" source="6DSpFLGJofq4vWxEsyLQ-1">
          <mxGeometry relative="1" as="geometry">
            <mxPoint x="172" y="970" as="sourcePoint" />
            <mxPoint x="332" y="1070" as="targetPoint" />
            <Array as="points">
              <mxPoint x="140" y="30" />
              <mxPoint x="40" y="30" />
              <mxPoint x="40" y="1070" />
            </Array>
          </mxGeometry>
        </mxCell>
        <mxCell id="r96osmJHh8GL2CP-nq_v-3" value="Message" style="edgeLabel;resizable=0;html=1;;align=center;verticalAlign=middle;" connectable="0" vertex="1" parent="r96osmJHh8GL2CP-nq_v-2">
          <mxGeometry relative="1" as="geometry">
            <mxPoint x="144" y="431" as="offset" />
          </mxGeometry>
        </mxCell>
        <mxCell id="r96osmJHh8GL2CP-nq_v-4" value="" style="endArrow=classic;html=1;rounded=0;entryX=0;entryY=0.5;entryDx=0;entryDy=0;exitX=1;exitY=0.5;exitDx=0;exitDy=0;" edge="1" parent="1">
          <mxGeometry relative="1" as="geometry">
            <mxPoint x="452" y="1070" as="sourcePoint" />
            <mxPoint x="682" y="1070" as="targetPoint" />
          </mxGeometry>
        </mxCell>
        <mxCell id="r96osmJHh8GL2CP-nq_v-5" value="Message data" style="edgeLabel;resizable=0;html=1;;align=center;verticalAlign=middle;" connectable="0" vertex="1" parent="r96osmJHh8GL2CP-nq_v-4">
          <mxGeometry relative="1" as="geometry" />
        </mxCell>
        <mxCell id="r96osmJHh8GL2CP-nq_v-6" value="" style="endArrow=classic;html=1;rounded=0;exitX=0.017;exitY=0.682;exitDx=0;exitDy=0;exitPerimeter=0;" edge="1" parent="1" source="r96osmJHh8GL2CP-nq_v-1">
          <mxGeometry relative="1" as="geometry">
            <mxPoint x="322.3599999999999" y="1097.4" as="sourcePoint" />
            <mxPoint x="160" y="49" as="targetPoint" />
            <Array as="points">
              <mxPoint x="20" y="1097" />
              <mxPoint x="30" y="10" />
              <mxPoint x="160" y="10" />
            </Array>
          </mxGeometry>
        </mxCell>
        <mxCell id="r96osmJHh8GL2CP-nq_v-7" value="Details Receive&amp;nbsp;" style="edgeLabel;resizable=0;html=1;;align=center;verticalAlign=middle;" connectable="0" vertex="1" parent="r96osmJHh8GL2CP-nq_v-6">
          <mxGeometry relative="1" as="geometry">
            <mxPoint x="158" y="470" as="offset" />
          </mxGeometry>
        </mxCell>
        <mxCell id="r96osmJHh8GL2CP-nq_v-8" value="" style="endArrow=classic;html=1;rounded=0;entryX=0.977;entryY=0.65;entryDx=0;entryDy=0;entryPerimeter=0;exitX=0;exitY=0.75;exitDx=0;exitDy=0;" edge="1" parent="1" target="r96osmJHh8GL2CP-nq_v-1">
          <mxGeometry relative="1" as="geometry">
            <mxPoint x="682" y="1095" as="sourcePoint" />
            <mxPoint x="442" y="1190" as="targetPoint" />
          </mxGeometry>
        </mxCell>
        <mxCell id="r96osmJHh8GL2CP-nq_v-9" value="Send Response" style="edgeLabel;resizable=0;html=1;;align=center;verticalAlign=middle;" connectable="0" vertex="1" parent="r96osmJHh8GL2CP-nq_v-8">
          <mxGeometry relative="1" as="geometry" />
        </mxCell>
        <mxCell id="r96osmJHh8GL2CP-nq_v-10" value="DB Message" style="shape=partialRectangle;whiteSpace=wrap;html=1;left=0;right=0;fillColor=none;" vertex="1" parent="1">
          <mxGeometry x="692" y="1050" width="120" height="60" as="geometry" />
        </mxCell>
      </root>
    </mxGraphModel>
  </diagram>
</mxfile>
